<?xml version="1.0" encoding="utf-8"?>
<!-- Generator: Adobe Illustrator 19.2.0, SVG Export Plug-In . SVG Version: 6.00 Build 0)  -->
<svg version="1.1" id="Layer_1" xmlns="http://www.w3.org/2000/svg" xmlns:xlink="http://www.w3.org/1999/xlink" x="0px" y="0px"
	 viewBox="0 0 205.3 26.2" style="enable-background:new 0 0 205.3 26.2;" xml:space="preserve">
<style type="text/css">
	.st0{font-family:'Oswald-Regular';}
	.st1{font-size:12px;}
	.st2{fill:none;stroke:#000000;stroke-width:0.704;stroke-linecap:round;stroke-miterlimit:10;}
	.st3{fill:#FFFFFF;}
	.st4{font-family:'WorkSans-Light';}
</style>
<polygon points="94.7,26.2 0,26.2 0,0 100.2,0 "/>
<g>
	<path d="M204.4,0.9v24.3h-110L100,0.9H204.4 M205.3,0H99.2l-6,26.2h112.1V0L205.3,0z"/>
</g>
<text transform="matrix(1 0 0 1 136.7668 19.87)"><tspan x="0" y="0" class="st0 st1">Colo</tspan><tspan x="20.5" y="0" class="st0 st1">r</tspan><tspan x="24.5" y="0" class="st0 st1">edCow</tspan></text>
<path class="st2" d="M109.1,4.7c0,0,1,3.7,1.6,4.2c0.6,0.5,2.5,0.5,3,0.5c0.5,0,1.3-0.3,2.1-2c0.8-1.7,0.2-2.7,0.2-2.7
	s-4.3,3.8-6.6,8.7c0,0-1,1.9,0.4,2.3c0,0,0.8,0.3,2.9-1.6c0,0,2.1-1.2,2.9-2.3c0.8-1,1.7-2.5,2.3-2.9c0.6-0.5,1.9-0.8,2.7,0.6
	c0,0,0.4,0.1,1,0.2c0.9,0.1,2.4,0.2,4.3,0c3.2-0.3,4.6,0.3,4.6,0.3s0.7-0.1,1.6,4.5c1,4.6,0.8,6.8,0.8,6.8s-0.1,0.1-0.2,0
	c0-0.1-0.1-0.3-0.1-0.4c-0.2-0.8-0.7-2.6-1.5-4c-1-1.8-1.7-2.9-5-3.4c-1.9-0.2-3.5-0.2-4.7,0l-0.1,0c-1.3,0.3-1.7,0.4-2.5,1
	c-0.6,0.4-3,1.4-3.9,6.3"/>
<text transform="matrix(1 0 0 1 19.6337 18.0655)"><tspan x="0" y="0" class="st3 st4 st1">c</tspan><tspan x="6.6" y="0" class="st3 st4 st1">r</tspan><tspan x="11.1" y="0" class="st3 st4 st1">a</tspan><tspan x="17.6" y="0" class="st3 st4 st1">f</tspan><tspan x="21.4" y="0" class="st3 st4 st1">ted </tspan><tspan x="44" y="0" class="st3 st4 st1">b</tspan><tspan x="51.2" y="0" class="st3 st4 st1">y</tspan><tspan x="57.1" y="0" class="st3 st4 st1"> </tspan></text>
</svg>
